<svg width="82" height="82" viewBox="0 0 82 82" fill="none" xmlns="http://www.w3.org/2000/svg">
<path d="M56.8721 37.4693C58.4273 33.9198 59.2845 30.104 59.3969 26.2304C59.3955 25.497 59.3504 24.7645 59.2621 24.0365C58.7162 19.4741 56.4823 15.2813 53.0001 12.2834C49.5178 9.28547 45.0396 7.6996 40.4467 7.83793C35.8539 7.97627 31.4792 9.82878 28.1837 13.0308C24.8882 16.2329 22.9107 20.5525 22.6403 25.1395C22.6158 25.495 22.6035 25.8627 22.6035 26.2304C22.6035 36.3908 30.8398 51.9808 41.0002 51.9808C44.8487 51.9808 48.403 49.7624 51.3445 46.4409C49.3092 46.8343 47.2403 47.0273 45.1674 47.017H45.057C43.8499 47.8131 42.4455 48.2586 41.0002 48.3039C33.8916 48.3039 26.2804 35.349 26.2804 26.2304C26.2804 25.9239 26.2927 25.6175 26.3172 25.3111C33.163 25.3163 39.8846 23.4835 45.7802 20.0041C48.8335 21.5802 52.0865 22.7347 55.4503 23.4359C55.6334 24.356 55.7238 25.2922 55.72 26.2304C55.72 30.3607 54.1511 35.2755 51.7857 39.4181C53.5427 38.942 55.2468 38.2891 56.8721 37.4693Z" fill="#090909"/>
<path d="M17.0867 27.7621C17.2879 27.7621 17.4871 27.7225 17.673 27.6455C17.8589 27.5685 18.0278 27.4556 18.1701 27.3134C18.3123 27.1711 18.4252 27.0022 18.5021 26.8163C18.5791 26.6304 18.6187 26.4312 18.6187 26.23C18.6187 25.7662 18.6301 25.3132 18.6649 24.8381C18.9323 20.5174 20.4476 16.3672 23.027 12.8907C25.6065 9.41422 29.1392 6.76085 33.1968 5.2524C37.2544 3.74395 41.6625 3.44523 45.8865 4.39247C50.1105 5.3397 53.9689 7.49221 56.9938 10.5889C60.4267 14.1178 62.6121 18.6721 63.2171 23.5579C63.3211 24.4449 63.375 25.337 63.3787 26.23C63.3724 27.6892 63.2445 29.1453 62.9963 30.5832L62.7569 32.0003L64.1555 32.33C64.9855 32.5264 65.7244 32.9986 66.2512 33.6695C66.778 34.3403 67.0616 35.1701 67.0556 36.023C67.0561 37.0319 66.6564 37.9998 65.9442 38.7143C65.232 39.4289 64.2655 39.8318 63.2566 39.8346C62.275 39.841 61.331 39.4576 60.6318 38.7687L59.8167 37.9644L58.8143 38.518C54.1715 41.1605 48.8592 42.3927 43.5272 42.0637C43.2369 41.5127 42.7754 41.071 42.2122 40.8051C41.649 40.5392 41.0147 40.4635 40.4047 40.5895C39.7948 40.7154 39.2423 41.0362 38.8306 41.5035C38.4188 41.9708 38.1701 42.5592 38.1219 43.1802C38.0737 43.8011 38.2285 44.4209 38.5632 44.9461C38.8979 45.4714 39.3942 45.8736 39.9773 46.0923C40.5605 46.3109 41.1989 46.3341 41.7964 46.1584C42.3939 45.9826 42.9181 45.6174 43.29 45.1178C43.9214 45.15 44.5472 45.1728 45.1612 45.1728C50.1136 45.206 54.9969 44.0105 59.3738 41.6934C60.5142 42.4832 61.8695 42.9039 63.2566 42.8987C64.8151 42.8956 66.3264 42.3632 67.5427 41.3887C68.7591 40.4142 69.6083 39.0554 69.9512 37.535C70.2941 36.0147 70.1103 34.4229 69.4301 33.0207C68.7498 31.6184 67.6133 30.4888 66.207 29.8171C66.3613 28.6276 66.44 27.4295 66.4428 26.23C66.439 25.2202 66.3784 24.2114 66.2614 23.2084C65.5788 17.6454 63.092 12.4594 59.1817 8.44406C55.7432 4.92479 51.3577 2.47849 46.5568 1.40169C41.7558 0.324888 36.7456 0.66383 32.1334 2.37743C27.5212 4.09103 23.5051 7.1057 20.5719 11.056C17.6387 15.0063 15.9144 19.7227 15.6079 24.6334C15.5684 25.1612 15.5547 25.6896 15.5547 26.23C15.5547 26.4312 15.5943 26.6304 15.6713 26.8163C15.7483 27.0022 15.8611 27.1711 16.0034 27.3134C16.1456 27.4556 16.3145 27.5685 16.5004 27.6455C16.6863 27.7225 16.8855 27.7621 17.0867 27.7621Z" fill="#4EC354"/>
<path d="M75.7138 67.7391C74.6655 63.8949 72.7398 61.7882 68.8996 60.6033C65.4015 59.4304 54.6094 55.6386 51.4881 54.4248C48.9983 59.0257 45.3916 62.9268 40.9998 65.7694C36.608 62.9268 33.0014 59.0257 30.5115 54.4248C27.3902 55.6386 16.5981 59.4304 13.1 60.6033C9.2598 61.7882 7.33415 63.8949 6.28581 67.7391C5.09983 72.0882 4.8877 76.727 4.8877 81.2133H77.112C77.112 76.727 76.8998 72.0882 75.7138 67.7391ZM67.7817 73.3932H57.7983C57.357 73.3932 56.9338 73.2179 56.6217 72.9059C56.3097 72.5938 56.1344 72.1706 56.1344 71.7293C56.1344 71.288 56.3097 70.8648 56.6217 70.5527C56.9338 70.2407 57.357 70.0654 57.7983 70.0654H67.7817C68.223 70.0654 68.6463 70.2407 68.9583 70.5527C69.2703 70.8648 69.4456 71.288 69.4456 71.7293C69.4456 72.1706 69.2703 72.5938 68.9583 72.9059C68.6463 73.2179 68.223 73.3932 67.7817 73.3932Z" fill="#090909"/>
<path d="M32.2782 28.375C31.8718 28.375 31.4821 28.5364 31.1948 28.8237C30.9075 29.111 30.7461 29.5007 30.7461 29.9071C30.7461 30.3134 30.9075 30.7031 31.1948 30.9904C31.4821 31.2777 31.8718 31.4391 32.2782 31.4391H36C36.4063 31.4391 36.796 31.2777 37.0833 30.9904C37.3706 30.7031 37.532 30.3134 37.532 29.9071C37.532 29.5007 37.3706 29.111 37.0833 28.8237C36.796 28.5364 36.4063 28.375 36 28.375H32.2782Z" fill="#2B77C0"/>
<path d="M45.9998 28.375C45.5935 28.375 45.2038 28.5364 44.9165 28.8237C44.6292 29.111 44.4678 29.5007 44.4678 29.9071C44.4678 30.3134 44.6292 30.7031 44.9165 30.9904C45.2038 31.2777 45.5935 31.4391 45.9998 31.4391H49.7216C50.1279 31.4391 50.5176 31.2777 50.8049 30.9904C51.0922 30.7031 51.2536 30.3134 51.2536 29.9071C51.2536 29.5007 51.0922 29.111 50.8049 28.8237C50.5176 28.5364 50.1279 28.375 49.7216 28.375H45.9998Z" fill="#2B77C0"/>
</svg>
