<svg width="13" height="18" viewBox="0 0 13 18" fill="none" xmlns="http://www.w3.org/2000/svg">
<path d="M6.84712 0.553711C3.61281 0.553711 0.981445 3.18507 0.981445 6.41938C0.981445 10.4846 6.85289 17.4287 6.85289 17.4287C6.85289 17.4287 12.7128 10.2846 12.7128 6.41938C12.7128 3.18507 10.0815 0.553711 6.84712 0.553711ZM8.61691 8.13685C8.12891 8.62475 7.48807 8.86875 6.84712 8.86875C6.20627 8.86875 5.56522 8.62475 5.07743 8.13685C4.10153 7.16106 4.10153 5.57326 5.07743 4.59737C5.54997 4.12461 6.17857 3.86423 6.84712 3.86423C7.51567 3.86423 8.14416 4.12471 8.61691 4.59737C9.59281 5.57326 9.59281 7.16106 8.61691 8.13685Z" fill="#4BBC51"/>
</svg>
