<svg width="90" height="90" viewBox="0 0 90 90" fill="none" xmlns="http://www.w3.org/2000/svg">
<path d="M50.6764 47.2617H65.7468C66.1748 47.2617 66.5852 47.4317 66.8879 47.7344C67.1905 48.037 67.3606 48.4475 67.3606 48.8755V57.8989C67.3606 58.3272 67.1904 58.7379 66.8876 59.0408C66.5848 59.3436 66.174 59.5137 65.7457 59.5137H50.6764C50.2481 59.5137 49.8373 59.3436 49.5345 59.0408C49.2317 58.7379 49.0615 58.3272 49.0615 57.8989V48.8766C49.0615 48.6645 49.1033 48.4545 49.1844 48.2586C49.2656 48.0627 49.3846 47.8846 49.5345 47.7347C49.6845 47.5847 49.8625 47.4658 50.0584 47.3846C50.2543 47.3035 50.4643 47.2617 50.6764 47.2617Z" fill="#090909"/>
<path d="M74.3817 41.5825C74.0343 41.5825 73.6868 41.5679 73.343 41.5386V50.2804H73.3576V72.38C73.3595 72.5121 73.3693 72.644 73.3868 72.775H40.9874C40.9727 69.7428 40.9874 50.6243 40.9727 47.5664L24.6925 47.7676V72.775H16.6128C16.6303 72.644 16.6401 72.5121 16.642 72.38V50.2804H16.6567V41.5386C16.3128 41.5679 15.9653 41.5825 15.6179 41.5825C13.8966 41.5833 12.1927 41.2387 10.6069 40.5693L10.5557 78.0055H79.389L79.3927 40.573C77.8065 41.2406 76.1027 41.5838 74.3817 41.5825Z" fill="#090909"/>
<path d="M88.7554 31.8541L82.1615 11.9946H7.83891L1.245 31.8541C1.245 31.8541 1.15078 31.8541 1.245 31.8584C4.20622 31.9231 7.04044 33.0736 9.20904 35.0911C9.70395 35.5869 10.2559 36.0224 10.8532 36.3885C12.5896 37.461 14.637 37.9164 16.6642 37.6809C18.6915 37.4455 20.58 36.533 22.0243 35.0911C23.8896 33.2803 26.3043 32.1415 28.888 31.8541H31.5427C34.1566 32.15 36.6041 33.2859 38.5176 35.0911C40.2478 36.7898 42.5755 37.7415 45.0002 37.7415C47.4249 37.7415 49.7526 36.7898 51.4828 35.0911C53.3963 33.2859 55.8438 32.15 58.4577 31.8541H61.1124C63.6961 32.1415 66.1108 33.2803 67.9761 35.0911C69.4204 36.533 71.3089 37.4455 73.3362 37.6809C75.3634 37.9164 77.4108 37.461 79.1472 36.3885C79.7445 36.0224 80.2964 35.5869 80.7913 35.0911C82.96 33.0736 85.7942 31.9231 88.7554 31.8584C88.8496 31.8541 88.7554 31.8541 88.7554 31.8541Z" fill="#4EC354"/>
</svg>
